<?xml version="1.0" encoding="utf-8"?>
<!-- Generator: Adobe Illustrator 22.1.0, SVG Export Plug-In . SVG Version: 6.00 Build 0)  -->
<svg version="1.1" id="Layer_1" xmlns="http://www.w3.org/2000/svg" xmlns:xlink="http://www.w3.org/1999/xlink" x="0px" y="0px"
	 viewBox="0 0 711.1 586.1" style="enable-background:new 0 0 711.1 586.1;" xml:space="preserve">
<style type="text/css">
	.st0{fill:none;stroke:#00AEEF;stroke-width:7;stroke-miterlimit:10;}
	.st1{fill:none;stroke:#00AEEF;stroke-width:6.71;stroke-miterlimit:10;}
	.st2{fill:none;stroke:#F15A29;stroke-width:7;stroke-miterlimit:10;}
	.st3{fill:none;stroke:#F15A29;stroke-width:6.71;stroke-miterlimit:10;}
	.st4{fill:none;stroke:#EC008C;stroke-width:7;stroke-miterlimit:10;}
	.st5{display:none;opacity:9.000000e-02;}
	.st6{display:inline;fill:#231F20;}
	.st7{display:inline;fill:none;stroke:#231F20;stroke-width:10.68;stroke-miterlimit:10;}
	.st8{fill:none;stroke:#EC008C;stroke-width:6.71;stroke-miterlimit:10;}
	.st9{display:none;}
	.st10{display:inline;fill:none;stroke:#EC008C;stroke-width:6.71;stroke-miterlimit:10;}
	.st11{fill:none;stroke:#662D91;stroke-width:6.71;stroke-miterlimit:10;}
</style>
<title>Artboard 1 copy</title>
<g>
	<polyline class="st0" points="717.7,504.1 662.2,526.3 650.8,488.4 	"/>
	<ellipse class="st1" cx="648.3" cy="482.4" rx="5.9" ry="6"/>
	<polyline class="st2" points="733.4,477.4 678,499.7 666.5,461.8 	"/>
	<ellipse class="st3" cx="665.5" cy="457.8" rx="5.9" ry="6"/>
</g>
<g>
	<polyline class="st4" points="-18,31.1 47.6,61.9 47.6,126.4 	"/>
	<ellipse class="st4" cx="47.6" cy="131.4" rx="5.9" ry="6"/>
	<polyline class="st0" points="-16.3,61.9 27,82.2 27,146.7 	"/>
	<ellipse class="st0" cx="27" cy="151.8" rx="6" ry="6.1"/>
</g>
<g class="st5">
	<path class="st6" d="M645,294.7c-0.5-2.9-1.1-5.8-2-8.6c1.3-5.2,1.9-10.6,1.9-16c0-17-6.4-33.5-18-45.9
		c-9.9-10.7-23.1-17.8-37.5-20.2l0.1-0.6c0.3-2.5,0.4-5,0.4-7.5c0-13.9-4.3-27.4-12.2-38.8c-7.4-10.5-17.6-18.6-29.5-23.4
		c-4.5-12.3-12.6-23-23.1-30.8c-11.3-8.4-25-12.9-39-12.8c-1.3,0-2.7,0-4.2,0.2h-0.5c-5.8-7.8-13.2-14.2-21.7-18.8
		c-14.2-7.7-30.7-9.8-46.4-6.1c-3.5,0.8-7,2-10.3,3.4c-7-6.8-15.2-12.2-24.2-16.1c-26-11.3-56.1-8.3-79.3,8h-0.4l-2.6-0.1
		c-11.1,0-22.1,2.3-32.4,6.7c-9.2,4-17.6,9.6-24.7,16.5c-2.1-0.4-4.2-0.8-6.4-1c-23.6-2.9-47.3,4.6-64.9,20.6
		c-13.6,12.3-22.7,28.7-26.1,46.6h-0.3c-2.4-0.2-4.6-0.3-6.7-0.3c-18.6,0-36.4,7.5-49.4,20.7c-27.6,28-27.3,73,0.6,100.6
		c3.2,3.2,6.7,6.1,10.5,8.6c-10.4,23-5.6,50,12.1,68c11.2,11.4,26.4,17.7,42.3,17.7c1.8,0,3.6-0.1,5.4-0.3c1.8,11,7.1,21.1,15,28.8
		c9.6,9.4,22.4,14.7,35.9,14.7h137c13.7,0,26.8-5.5,36.5-15.3c9.7-9.8,15.2-23.1,15.1-36.9v-46.1l0,0c0-1.6-0.6-3.1-1.7-4.3
		L371.1,281c2.7-6.9,1.1-14.7-4.1-19.9c-7-7.1-18.4-7.3-25.6-0.4c-0.1,0.1-0.3,0.2-0.4,0.4c-7.2,7.3-7.2,19,0,26.2l0.1,0.1l0,0
		c5.8,5.9,14.8,7.2,22,3.1l20.9,22.3v43.6c0,10.5-4.1,20.5-11.5,28c-7.3,7.4-17.3,11.6-27.7,11.6h-137c-10.2,0-20-4-27.2-11.1
		c-6.7-6.5-10.9-15.2-11.9-24.5l22.2-22.5c1.2-1.2,1.8-2.8,1.8-4.4v-50.2c2.6-0.9,4.9-2.4,6.8-4.4l0,0c7.2-7.3,7.2-19,0-26.3
		c-7-7.1-18.4-7.3-25.6-0.4l-0.4,0.4c-7.2,7.3-7.2,18.9-0.1,26.2l0.1,0.1l0,0c1.9,1.9,4.2,3.4,6.8,4.4v47.6l-21.1,21.3
		c-1,0.2-2,0.3-3,0.4l0,0c-1.5,0.2-3.1,0.2-4.9,0.2c-12.6,0-24.7-5.1-33.6-14.1c-15.1-15.4-18.3-38.8-7.8-57.6l41.7-42.2
		c7.2,4,16.1,2.7,21.9-3.1l0,0c7.2-7.3,7.2-19,0-26.3c-7-7.1-18.4-7.3-25.6-0.4c-0.1,0.1-0.3,0.2-0.4,0.4
		c-5.2,5.3-6.8,13.2-4.1,20.1L104,269.4c-27.1-17.8-34.5-54.2-16.7-81.2c2.1-3.2,4.5-6.2,7.2-8.9c10.7-10.9,25.4-17,40.7-17
		c2,0,3.9,0.1,5.6,0.3c1.5,0.1,3,0.3,4.5,0.6l74.1,43.2v68.2c0,1.7,0.7,3.3,1.9,4.5l31,31.3c-1.4,6.2,0.4,12.7,4.9,17.3l0,0.1l0,0
		c7.1,7.2,18.6,7.3,25.8,0.2c0.1-0.1,0.1-0.1,0.2-0.2l0,0c7.2-7.3,7.2-19,0-26.3c-6.4-6.5-16.7-7.3-24-1.7l-27.4-27.7v-69.2l0,0
		c0-2.2-1.2-4.3-3.1-5.4l-74.5-43.5c2.6-15.8,10.5-30.3,22.4-41.1c12.8-11.6,29.5-18.1,46.8-18.1c2.8,0,5.7,0.2,8.5,0.5
		c2.3,0.3,4.5,0.7,6.6,1.1l31,31.3v92.3c-2.4,0.9-4.6,2.2-6.4,4c-0.1,0.1-0.3,0.2-0.4,0.4c-7.2,7.3-7.2,18.9,0,26.2l0,0.1l0,0
		c7,7.2,18.6,7.3,25.8,0.2c0.1-0.1,0.2-0.2,0.2-0.2l0,0c7.2-7.3,7.2-19,0-26.3c-1.9-1.9-4.3-3.4-6.8-4.4V125c0-1.7-0.6-3.2-1.8-4.4
		l-29.6-29.9C263.1,79.3,279.6,73,296.7,73h2.1l40.4,40.9v34c-2.4,0.9-4.6,2.2-6.4,4l-0.4,0.4c-7.2,7.3-7.2,18.9-0.1,26.2l0.1,0.1
		l0,0c7,7.2,18.6,7.3,25.8,0.2c0.1-0.1,0.2-0.2,0.2-0.2l0,0c7.2-7.3,7.2-19,0-26.3c-1.9-1.9-4.2-3.4-6.8-4.4v-36.5l0,0
		c0-1.7-0.7-3.2-1.8-4.4l-38.5-39c28-16.4,63.6-11.3,85.9,12.3l2.1,3c8.7,11.9,13.3,26.3,13.1,41.1v273.2c1.5-0.2,3.1-0.4,4.7-0.4
		c2.6,0,5.2,0.3,7.7,1V124.4c0.1-8.6-1.2-17.2-3.8-25.5c-2.3-7-5.5-13.8-9.6-19.9c1.6-0.6,3.3-1.1,5-1.5c12.8-3,26.2-1.3,37.8,4.9
		c7.3,4,13.6,9.5,18.4,16.3v65.1c-2.4,0.9-4.6,2.2-6.4,4c-0.1,0.1-0.3,0.2-0.4,0.4c-7.2,7.3-7.2,18.9,0,26.2l0,0.1l0,0l0,0
		c7.1,7.2,18.6,7.3,25.8,0.2c0.1-0.1,0.1-0.1,0.2-0.2l0,0c7.2-7.3,7.2-19,0-26.3c-1.9-1.9-4.3-3.4-6.8-4.4v-61.2h1.5
		c11.4,0,22.5,3.6,31.7,10.4c9,6.6,15.7,15.9,19.3,26.5v68.5L511.5,234c-7.1-4.4-16.3-3.5-22.3,2.3l-0.4,0.4
		c-7.2,7.3-7.2,18.9-0.1,26.2l0.1,0.1l0,0c7,7.2,18.6,7.3,25.8,0.2c0.1-0.1,0.2-0.2,0.2-0.2l0,0c5-5,6.7-12.4,4.4-19.1l28.5-28.8
		c1.2-1.2,1.9-2.8,1.9-4.5V148c17.3,9.7,28.1,28,28,47.8c0,2.1-0.1,4.1-0.3,6.2c-0.2,1.5-0.4,2.9-0.7,4.3l-29,29.4
		c-1.2,1.2-1.8,2.8-1.8,4.4l0,0v60.6c-2.4,0.9-4.6,2.2-6.4,4L539,305c-7.2,7.3-7.2,19,0,26.2v0.1l0,0c7.1,7.2,18.6,7.3,25.8,0.2
		c0.1-0.1,0.1-0.1,0.2-0.2l0,0c7.2-7.3,7.2-19,0-26.3c-1.9-1.9-4.3-3.4-6.8-4.4v-58l26.5-26.8c12.8,1.4,24.6,7.4,33.3,16.8
		c9.5,10.1,14.7,23.5,14.7,37.4c0,2.5-0.2,4.9-0.5,7.3c-0.1,0.9-0.3,1.7-0.4,2.6h-31.6c-0.9-2.6-2.4-5-4.3-6.9l0,0
		c-7-7.1-18.4-7.3-25.6-0.4l-0.4,0.4c-7.2,7.3-7.2,18.9-0.1,26.2l0.1,0.1l0,0l0,0c7,7.2,18.5,7.3,25.7,0.3c0.1-0.1,0.1-0.1,0.2-0.2
		l0.1-0.1l0,0l0,0c1.9-1.9,3.4-4.3,4.3-6.9H632c0.3,1.4,0.6,2.7,0.8,4.1c0.5,2.9,0.7,5.8,0.7,8.7c0.1,13.3-4.8,26.3-13.6,36.3
		c-8.7,9.9-20.7,16.2-33.7,17.8h-88.9c-0.9-2.6-2.4-4.9-4.3-6.9c-7-7.1-18.4-7.3-25.6-0.4c-0.1,0.1-0.3,0.2-0.4,0.4
		c-7.2,7.3-7.2,18.9-0.1,26.2l0.1,0.1l0,0l0,0c7.1,7.2,18.6,7.3,25.8,0.2c0.1-0.1,0.1-0.1,0.2-0.2l0,0c1.9-2,3.4-4.3,4.3-6.9H580
		c-1.3,12.4-6.7,24-15.5,32.8c-10,10.2-23.7,16-38.1,16h-22.7c-14.3,0-28-5.8-38.1-16c-10.1-10.2-15.8-24.1-15.8-38.5V338l27.8-28.1
		c7,3.3,15.4,1.9,20.8-3.7l0,0c7.2-7.3,7.2-19,0-26.3c-7-7.1-18.4-7.3-25.6-0.4l-0.4,0.4c-5.5,5.6-7,14.1-3.6,21.2l-29.5,29.8
		c-1.2,1.2-1.9,2.8-1.9,4.5v30.8c0,17.7,6.9,34.7,19.4,47.3c12.3,12.6,29.2,19.6,46.8,19.6h22.7c17.6,0,34.5-7.1,46.8-19.6
		c11.3-11.4,18.1-26.5,19.2-42.6c14.2-2.8,27-10.3,36.6-21.1C642.3,334.8,648.2,314.6,645,294.7L645,294.7z M358.7,278l-0.1,0.2l0,0
		l0,0c-0.1,0.1-0.2,0.2-0.3,0.4l0,0c-2.3,2.4-6.1,2.4-8.5,0.1c0,0,0,0-0.1-0.1l0,0c-2.3-2.4-2.3-6.2,0-8.6l0.2-0.2
		c2.4-2.2,6.1-2.1,8.3,0.2c1.1,1.1,1.8,2.7,1.8,4.3C360,275.6,359.5,276.9,358.7,278L358.7,278z M182.2,261.4l0.2-0.2
		c1.1-1,2.5-1.6,4-1.6c1.6,0,3.1,0.6,4.3,1.8c2.3,2.4,2.3,6.2,0,8.6l0,0c-2.3,2.4-6.1,2.4-8.5,0c0,0,0,0,0,0l0,0
		C179.8,267.6,179.8,263.8,182.2,261.4L182.2,261.4z M156.2,218.3l0.2-0.2c2.4-2.2,6.1-2.1,8.3,0.2c2.3,2.4,2.3,6.2,0,8.6l0,0
		c-2.3,2.4-6.1,2.4-8.5,0.1c0,0,0,0-0.1-0.1l0,0C153.8,224.5,153.8,220.7,156.2,218.3L156.2,218.3z M265.8,310.3l0.2-0.2
		c2.4-2.2,6.1-2.1,8.3,0.2c2.3,2.4,2.3,6.2,0,8.6l0,0c-2.3,2.4-6.1,2.4-8.5,0c0,0,0,0,0,0l0,0C263.5,316.5,263.5,312.7,265.8,310.3z
		 M271.3,233.1l0.2-0.2c2.4-2.2,6.1-2.1,8.3,0.2c2.3,2.4,2.3,6.2,0,8.6l0,0c-2.3,2.4-6.1,2.4-8.5,0.1c0,0,0,0-0.1-0.1l0,0
		C268.9,239.4,268.9,235.5,271.3,233.1z M341.1,161.1l0.2-0.2c2.4-2.2,6.1-2.1,8.3,0.2c2.3,2.4,2.3,6.2,0,8.6l0,0
		c-2.3,2.4-6.1,2.4-8.5,0c0,0,0,0,0,0l0,0C338.7,167.4,338.7,163.5,341.1,161.1z M482.9,185.7L482.9,185.7c-2.3,2.4-6.1,2.4-8.5,0
		c0,0,0,0,0,0l0,0c-2.3-2.4-2.3-6.2,0-8.6l0.2-0.2c1.1-1,2.6-1.6,4-1.6c1.6,0,3.1,0.6,4.3,1.8C485.2,179.4,485.2,183.3,482.9,185.7z
		 M506.1,254.1L506.1,254.1c-2.3,2.4-6.1,2.4-8.5,0c0,0,0,0,0,0l0,0c-2.3-2.4-2.3-6.2,0-8.6l0.2-0.2c2.4-2.2,6.1-2.1,8.3,0.2
		c0.2,0.2,0.4,0.5,0.6,0.7l0,0.1l0,0C508.4,248.7,508.2,252,506.1,254.1L506.1,254.1z M556.3,322.5L556.3,322.5
		c-2.3,2.4-6.1,2.4-8.5,0.1c0,0,0,0-0.1-0.1l0,0c-2.3-2.4-2.3-6.2,0-8.6l0.2-0.2c2.4-2.2,6.1-2.1,8.3,0.2
		C558.7,316.3,558.7,320.1,556.3,322.5z M587.1,290.5L587.1,290.5c-2.3,2.4-6.1,2.4-8.5,0c0,0,0,0,0,0l0,0c-2.3-2.4-2.3-6.2,0-8.6
		l0.2-0.2c2.4-2.1,6-2.1,8.3,0.2l0,0l0,0C589.4,284.3,589.4,288.1,587.1,290.5L587.1,290.5z M484.3,370L484.3,370
		c-2.3,2.4-6.1,2.4-8.5,0.1c0,0,0,0-0.1-0.1l0,0c-2.3-2.4-2.3-6.2,0-8.6l0.2-0.2c2.4-2.2,6.1-2.1,8.3,0.2
		C486.6,363.8,486.6,367.6,484.3,370z M481.3,288.8l0.2-0.2c2.4-2.2,6.1-2.1,8.3,0.2c2.3,2.4,2.3,6.2,0,8.6l0,0
		c-2.3,2.3-5.9,2.4-8.3,0.2l-0.2-0.2l-0.2-0.2C478.9,294.8,479,291.1,481.3,288.8L481.3,288.8z"/>
	<path class="st6" d="M374.9,193.9c-7-7.1-18.4-7.3-25.6-0.4c-0.1,0.1-0.3,0.2-0.4,0.4c-5,5.1-6.7,12.6-4.3,19.4l-30.8,31.1
		c-1.2,1.2-1.9,2.8-1.9,4.5v78.2l-19.6,19.8c-7-4-15.8-2.8-21.6,2.7l-0.4,0.4c-7.2,7.3-7.2,18.9-0.1,26.2l0.1,0.1l0,0
		c7.1,7.2,18.6,7.3,25.8,0.2c0.1-0.1,0.2-0.2,0.2-0.2l0,0c5.2-5.3,6.8-13.1,4.1-20l22-22.2c1.2-1.2,1.8-2.8,1.8-4.4v-78.2l28.2-28.5
		c7.2,4.4,16.6,3.3,22.5-2.8l0,0C382.1,212.8,382.1,201.1,374.9,193.9L374.9,193.9z M287.6,367.5L287.6,367.5L287.6,367.5
		c-2.3,2.4-6.1,2.4-8.5,0c0,0,0,0,0,0l0,0c-2.3-2.4-2.3-6.2,0-8.6l0.2-0.2c2.4-2.2,6.1-2.1,8.3,0.2
		C289.9,361.3,289.9,365.1,287.6,367.5z M366.2,211.4L366.2,211.4c-1.1,1.1-2.7,1.8-4.3,1.8c-1.6,0-3.1-0.6-4.3-1.8l0,0
		c-0.1-0.1-0.3-0.3-0.4-0.4c-0.1-0.2-0.2-0.3-0.4-0.5c-1.6-2.4-1.3-5.7,0.8-7.7l0.2-0.2c2.4-2.2,6.1-2.1,8.3,0.2
		C368.5,205.2,368.5,209,366.2,211.4L366.2,211.4z"/>
	<path class="st7" d="M363.8,398c0,0,30-5.8,49.4-5.2s47.3,14.3,47.3,14.3"/>
</g>
<g>
	<polyline class="st8" points="-110.5,265.2 12.6,265.2 31.7,285.7 56.1,285.7 	"/>
	<ellipse class="st8" cx="62" cy="286" rx="5.9" ry="6"/>
</g>
<g class="st9">
	<polyline class="st10" points="714.8,146.7 644.8,146.7 625.7,126.2 495.1,126.2 	"/>
	<ellipse class="st10" cx="489.2" cy="125.9" rx="5.9" ry="6"/>
</g>
<g>
	<polyline class="st3" points="-57.8,433.9 41.4,433.9 60.5,411.5 109.9,411.5 	"/>
	<ellipse class="st3" cx="115.9" cy="411.8" rx="5.9" ry="6"/>
</g>
<g>
	<polyline class="st3" points="806,229.7 678.2,229.7 659.1,252.2 639.4,252.2 	"/>
	<ellipse class="st3" cx="633.5" cy="251.9" rx="5.9" ry="6"/>
</g>
<g>
	<polyline class="st11" points="-110.5,482.4 12.6,482.4 31.7,502.9 56.1,502.9 	"/>
	<ellipse class="st11" cx="62" cy="503.2" rx="5.9" ry="6"/>
</g>
<g>
	<polyline class="st11" points="742,363.8 671.9,363.8 652.8,343.3 582.3,343.3 	"/>
	<ellipse class="st11" cx="576.3" cy="343" rx="5.9" ry="6"/>
</g>
</svg>
